<svg id="eqNJPs25x7O1" xmlns="http://www.w3.org/2000/svg" xmlns:xlink="http://www.w3.org/1999/xlink" viewBox="0 0 64 64" shape-rendering="geometricPrecision" text-rendering="geometricPrecision" project-id="8ca3602b51d74f35817c9b041cc6ab15" export-id="428fa9d3b64c43bfa7024f2c9c06b3ff" cached="false"><path d="M21.82238,57.52155h-3.83284c-1.09064,0-1.97478-.92665-1.97478-2.06974v-4.35902c0-1.14308.88414-2.06974,1.97478-2.06974h4.90402C26.69187,34.18622,40.15103,23.21823,56.1719,23.21823c14.61379,0,27.0961,9.12601,32.0588,21.98991c1.99664-1.45372,4.34828-2.29236,6.8657-2.29236c2.42584,0,4.69774.77873,6.64639,2.13616c5.0032-12.78151,17.44352-21.83371,31.9981-21.83371c16.02087,0,29.48003,10.96799,33.27834,25.80482h4.90402c1.09064,0,1.97478.92666,1.97478,2.06974v4.35902c0,1.14309-.88414,2.06974-1.97478,2.06974h-3.83284c.00002.01541.00003.03081.00003.04623v.00001c-.00001,18.97073-15.37882,34.34954-34.34955,34.34954-5.63063,0-10.94483-1.35478-15.63442-3.75615L103.7745,96.27742l21.64767,12.25914-.00936.01652c3.06253,1.82787,5.60376,5.0692,6.79727,9.15839c1.76746,6.05567.04309,12.13375-3.89851,15.24196l-4.44802-3.96316c1.31952-1.97481,1.73649-4.83515.89954-7.70272-.6624-2.26952-1.98449-4.11273-3.58521-5.25626l-.03823.06751-1.82157-1.03156c-.35219-.11887-.70996-.20548-1.07023-.25763l-6.55651-3.74588c.05524-.07423.11128-.14768.16811-.22034l-16.90306-9.57225-16.90306,9.57225c.05683.07266.11287.14611.16811.22034l-6.55651,3.74588c-.36027.05215-.71804.13876-1.07023.25763l-1.82157,1.03156-.03823-.06751c-1.60072,1.14353-2.92281,2.98674-3.58521,5.25626-.83695,2.86757-.41998,5.72791.89954,7.70272l-4.44802,3.96316c-3.9416-3.10821-5.66597-9.18629-3.89851-15.24196c1.19351-4.08919,3.73474-7.33052,6.79727-9.15839l-.00936-.01652L86.13828,96.27742L71.80631,88.16118c-4.68959,2.40137-10.00379,3.75615-15.63442,3.75615-18.97073,0-34.34954-15.37881-34.34955-34.34954v-.00001c0-.01542.00001-.03082.00003-.04623h.00001Zm68.69907.04623c0,9.88277-4.17362,18.79075-10.85443,25.0575L94.95639,91.2837l15.28937-8.65842c-6.68081-6.26675-10.85443-15.17473-10.85443-25.0575c0-1.58301.10708-3.14102.3144-4.66716-1.43386-.63662-2.98718-.98484-4.60934-.98484-1.72215,0-3.36672.39247-4.87313,1.10585.19668,1.48746.29818,3.00496.29818,4.54615h.00001ZM56.1719,82.83729c1.80505,0,3.5659-.18926,5.26378-.54902L32.26244,65.76737c3.40505,9.93122,12.82359,17.06991,23.90946,17.06991v.00001Zm25.2695-25.2695c0-13.95596-11.31354-25.2695-25.2695-25.2695-13.11593,0-23.89797,9.99257-25.14842,22.78001L71.24165,77.85398C77.43161,73.2482,81.4414,65.87626,81.4414,57.56779Zm52.29949,25.26949c11.08587,0,20.50441-7.13869,23.90946-17.06991l-29.17324,16.5209c1.69788.35976,3.45873.54902,5.26378.54902v-.00001Zm-15.06975-4.9833L158.88931,55.0783c-1.25045-12.78744-12.03249-22.78001-25.14842-22.78001-13.95596,0-25.2695,11.31354-25.2695,25.2695c0,8.30847,4.00979,15.68041,10.19975,20.28619Z" transform="matrix(.322794 0 0 0.322794 1.348645 6.794363)" fill="#009fc7" stroke-width="0"/></svg>
